<svg xmlns="http://www.w3.org/2000/svg" viewBox="0 0 168 168" width="32" height="32" fill="#1DB954">
  <path d="M84 0C37.6 0 0 37.6 0 84s37.6 84 84 84 84-37.6 84-84S130.4 0 84 0zm38.8 121.6c-1.6 2.6-4.8 3.4-7.4 1.8-20.2-12.4-45.6-15.2-75.6-8.4-3 0.6-5.8-1.4-6.4-4.4s1.4-5.8 4.4-6.4c33-7 61.2-4 84 9 2.6 1.6 3.4 4.8 1.8 7.4zm10.2-20.6c-1.8 2.8-5.2 3.6-8 1.8-23.2-14-58.4-18-85.2-9.8-3 0.8-6.2-0.8-7-3.8s0.8-6.2 3.8-7c29.2-8.4 66-4.2 91 11.2 2.8 1.6 3.6 5.2 1.8 8zm0-20.6c-27-16-71.6-17.4-96-9-3.6 1.2-7.4-0.8-8.6-4.4s0.8-7.4 4.4-8.6c27.2-8.6 74-6.6 103.6 11.4 3.2 1.8 4 6 2.2 8.8z"/>
</svg>
